<?xml version="1.0" standalone="no"?>
<!DOCTYPE svg PUBLIC "-//W3C//DTD SVG 20010904//EN"
 "http://www.w3.org/TR/2001/REC-SVG-20010904/DTD/svg10.dtd">
<svg version="1.0" xmlns="http://www.w3.org/2000/svg"
 width="260.000000pt" height="260.000000pt" viewBox="0 0 260.000000 260.000000"
 preserveAspectRatio="xMidYMid meet">
<metadata>
Created by potrace 1.14, written by Peter Selinger 2001-2017
</metadata>
<g transform="translate(0.000000,260.000000) scale(0.100000,-0.100000)"
fill="#000000" stroke="none">
<path d="M549 2357 c-59 -31 -106 -100 -114 -170 -3 -28 -5 -448 -3 -932 l3
-880 27 -46 c15 -25 46 -59 69 -75 l42 -29 458 -3 457 -3 -28 68 c-16 37 -32
85 -35 105 l-7 38 -384 0 -384 0 0 870 0 871 108 -3 107 -3 5 -428 5 -428 129
116 c71 63 133 114 137 113 4 -2 64 -54 133 -115 68 -62 127 -113 130 -113 3
0 6 194 6 430 l0 430 270 0 270 0 0 -492 0 -493 107 2 108 2 0 518 0 518 -27
46 c-15 25 -46 59 -69 75 l-42 29 -717 3 -716 2 -45 -23z"/>
<path d="M1765 841 c-125 -58 -171 -205 -105 -337 16 -33 55 -90 87 -127 62
-73 300 -297 315 -297 5 0 87 78 182 173 132 132 180 187 205 235 60 116 50
230 -27 305 -49 48 -98 67 -172 67 -65 0 -116 -17 -166 -55 -31 -24 -32 -24
-49 -5 -52 58 -189 79 -270 41z"/>
</g>
</svg>
